<?xml version="1.0" encoding="UTF-8"?>
<svg version="1.1" xmlns="http://www.w3.org/2000/svg" width="1024" height="1024">
<path d="M0 0 C337.92 0 675.84 0 1024 0 C1024 337.92 1024 675.84 1024 1024 C686.08 1024 348.16 1024 0 1024 C0 686.08 0 348.16 0 0 Z " fill="#EFE5D4" transform="translate(0,0)"/>
<path d="M0 0 C36.63 0 73.26 0 111 0 C111 171.6 111 343.2 111 520 C74.37 520 37.74 520 0 520 C0 348.4 0 176.8 0 0 Z " fill="#CAA776" transform="translate(291,252)"/>
<path d="M0 0 C49.12939871 -0.52393944 49.12939871 -0.52393944 69.74804688 -0.63476562 C83.97417253 -0.71184664 98.19929582 -0.80236226 112.42456055 -0.98071289 C122.78582304 -1.11055596 133.14627095 -1.19421934 143.50832444 -1.22315043 C148.99214807 -1.24005533 154.47364205 -1.2795882 159.95671654 -1.37449074 C165.12604312 -1.46323163 170.29209835 -1.48985563 175.46211433 -1.47039986 C177.35159007 -1.47395471 179.24118358 -1.49953038 181.12999725 -1.54967117 C196.13060326 -1.92809665 196.13060326 -1.92809665 201.85604286 2.8175602 C204.6624649 5.48733093 207.08949971 8.39703774 209.52741492 11.39965582 C212.01197056 14.09976749 214.96492185 15.95440137 218 18 C219.83032227 19.84909058 219.83032227 19.84909058 221.25390625 21.62060547 C225.84039063 27.07175233 230.89885648 32.04319943 235.9375 37.0703125 C236.98704329 38.12053129 238.03643826 39.17089832 239.08569336 40.22140503 C241.27263266 42.40980909 243.46134563 44.5964189 245.65136719 46.78173828 C248.44186597 49.56653344 251.2278403 52.35580496 254.01249695 55.14644051 C256.17439299 57.31196927 258.33868878 59.47508708 260.50369263 61.63750839 C261.53135313 62.66450748 262.55828709 63.69223415 263.58444214 64.72073746 C270.11284063 71.28196093 270.11284063 71.28196093 277 77.46044922 C279.2988907 79.40649911 281.05212938 81.14335619 282.9375 83.4375 C284.97568047 85.89608845 287.06114916 88.00164515 289.5 90.0625 C293.686577 93.62763197 297.59641383 97.44373225 301.5 101.3125 C302.13615234 101.93584229 302.77230469 102.55918457 303.42773438 103.20141602 C304.01876953 103.79108154 304.60980469 104.38074707 305.21875 104.98828125 C305.75435547 105.51977783 306.28996094 106.05127441 306.84179688 106.59887695 C308 108 308 108 308 110 C206.36 110 104.72 110 0 110 C0 73.7 0 37.4 0 0 Z " fill="#CBA776" transform="translate(424,252)"/>
<path d="M0 0 C101.64 0 203.28 0 308 0 C301.24644204 7.87915095 301.24644204 7.87915095 298.13769531 11.00756836 C297.44387756 11.70776596 296.75005981 12.40796356 296.03521729 13.12937927 C295.30687683 13.85883255 294.57853638 14.58828583 293.828125 15.33984375 C292.68268219 16.49027916 292.68268219 16.49027916 291.51409912 17.66395569 C289.91191366 19.27117373 288.30839777 20.87706651 286.70361328 22.48168945 C284.23832532 24.94918514 281.7811677 27.42459478 279.32421875 29.90039062 C277.76350983 31.4640299 276.2023288 33.02719812 274.640625 34.58984375 C273.90418762 35.33346664 273.16775024 36.07708954 272.40899658 36.84324646 C271.72778748 37.52137894 271.04657837 38.19951141 270.34472656 38.89819336 C269.44587738 39.79918007 269.44587738 39.79918007 268.52886963 40.71836853 C267 42 267 42 265 42 C264.6596875 42.86625 264.6596875 42.86625 264.3125 43.75 C262.65238361 46.59591381 260.60812043 47.99841921 258 50 C255.22710291 52.63425224 252.70205627 55.33431403 250.3125 58.3125 C249.549375 59.199375 248.78625 60.08625 248 61 C247.34 61 246.68 61 246 61 C245.75314453 61.58458984 245.50628906 62.16917969 245.25195312 62.77148438 C243.79718157 65.36102314 242.23816056 66.73929319 239.96875 68.65625 C235.00298637 73.01469002 230.31526063 77.59713308 225.65625 82.28125 C224.91528076 83.02552246 224.17431152 83.76979492 223.41088867 84.53662109 C221.10529382 86.85580588 218.80224181 89.17748688 216.5 91.5 C213.42993881 94.59660351 210.35660323 97.68990323 207.28125 100.78125 C206.57923462 101.49156372 205.87721924 102.20187744 205.15393066 102.93371582 C204.50565308 103.58529663 203.85737549 104.23687744 203.18945312 104.90820312 C202.62005005 105.48284302 202.05064697 106.05748291 201.46398926 106.64953613 C198.13166813 109.72345164 194.51757652 109.1365408 190.24264526 109.12025452 C189.43239305 109.12110894 188.62214083 109.12196337 187.78733552 109.12284368 C185.05725757 109.12449807 182.32724031 109.11897777 179.59716797 109.11352539 C177.64615887 109.11324348 175.69514966 109.11340132 173.74414062 109.1139679 C168.43450181 109.11425574 163.12488542 109.10836117 157.81525183 109.10139394 C152.27121436 109.09515816 146.72717642 109.09455642 141.18313599 109.09336853 C130.67882171 109.09025588 120.1745178 109.08204337 109.6702081 109.07201904 C95.47988702 109.05877002 81.28956314 109.05335746 67.09923744 109.04751682 C44.73281719 109.03810344 22.36641882 109.01818408 0 109 C0 73.03 0 37.06 0 0 Z " fill="#CBA777" transform="translate(424,514)"/>
<path d="M0 0 C36.63 0 73.26 0 111 0 C111 35.97 111 71.94 111 109 C74.37 109 37.74 109 0 109 C0 73.03 0 37.06 0 0 Z " fill="#CAA776" transform="translate(622,383)"/>
<path d="M0 0 C101.97 0 203.94 0 309 0 C309 4 309 4 307.5 5.75 C306.7575 6.36875 306.7575 6.36875 306 7 C305.34 6.67 304.68 6.34 304 6 C305.485 4.515 305.485 4.515 307 3 C205.69 2.67 104.38 2.34 0 2 C0 1.34 0 0.68 0 0 Z " fill="#F0DEBF" transform="translate(424,512)"/>
<path d="M0 0 C0.66 0 1.32 0 2 0 C2 35.97 2 71.94 2 109 C100.505 108.505 100.505 108.505 201 108 C201 108.99 201 109.98 201 111 C134.67 111 68.34 111 0 111 C0 74.37 0 37.74 0 0 Z " fill="#F0DFC1" transform="translate(422,514)"/>
<path d="M0 0 C2.69959663 0.090252 5.36490809 0.14243245 8.0625 0.125 C8.79782959 0.1237915 9.53315918 0.12258301 10.29077148 0.12133789 C15.07145909 0.08794244 19.79541161 -0.1736591 24.5625 -0.5625 C31.01233021 -1.05132924 37.19570735 -0.75474513 43.63671875 -0.2578125 C51.73787614 0.29931973 59.88516553 0.07482942 68 0 C68 0.66 68 1.32 68 2 C81.2 1.67 94.4 1.34 108 1 C108 1.66 108 2.32 108 3 C6.36 3 -95.28 3 -200 3 C-200 2.67 -200 2.34 -200 2 C-148.52 1.505 -148.52 1.505 -96 1 C-96 0.67 -96 0.34 -96 0 C-95.03026749 0.00222061 -94.06053497 0.00444122 -93.06141663 0.00672913 C-83.89606428 0.02705314 -74.73071654 0.04201663 -65.56534672 0.05181217 C-60.85402037 0.05701753 -56.14271231 0.06407233 -51.43139648 0.07543945 C-46.87968709 0.08635203 -42.32799521 0.0922945 -37.77627373 0.09487724 C-36.04486249 0.09671646 -34.31345214 0.10030786 -32.58204842 0.10573006 C-30.14590553 0.11305175 -27.70983387 0.11398629 -25.27368164 0.11352539 C-24.21415535 0.1189183 -24.21415535 0.1189183 -23.13322449 0.12442017 C-18.72089292 0.11546202 -14.44746581 -0.23411085 -10.07422543 -0.8272028 C-6.62860315 -1.11424676 -3.41848489 -0.49464697 0 0 Z " fill="#D0B892" transform="translate(624,359)"/>
<path d="M0 0 C0.33 0 0.66 0 1 0 C1 35.97 1 71.94 1 109 C37.63 109 74.26 109 112 109 C112 73.36 112 37.72 112 1 C112.33 1 112.66 1 113 1 C113.13264575 10.9298248 113.26314743 20.85967549 113.39115143 30.78956127 C113.45069627 35.40391068 113.5108914 40.0182494 113.57275391 44.63256836 C113.86438505 66.42313353 114.08651986 88.20714419 114 110 C111.61860912 111.19069544 110.17182632 111.12576587 107.51426697 111.12698364 C106.57057755 111.12980347 105.62688812 111.13262329 104.65460205 111.13552856 C103.61608093 111.13350433 102.57755981 111.1314801 101.50756836 111.12939453 C100.4164827 111.13114685 99.32539703 111.13289917 98.20124817 111.13470459 C94.58076403 111.13911985 90.96032841 111.13618644 87.33984375 111.1328125 C84.83403006 111.13348558 82.32821642 111.13445565 79.82240295 111.13571167 C74.5657603 111.13718816 69.30913038 111.13513023 64.05249023 111.13037109 C57.96764214 111.1249259 51.88282753 111.12669352 45.79798025 111.1321975 C39.95244457 111.13727414 34.10692167 111.13674728 28.26138496 111.13381577 C25.76977089 111.13314632 23.27815597 111.13397554 20.78654289 111.13629532 C17.31201755 111.1388202 13.83755756 111.1349837 10.36303711 111.12939453 C9.32249176 111.13141876 8.28194641 111.13344299 7.20986938 111.13552856 C6.26899979 111.13270874 5.32813019 111.12988892 4.35874939 111.12698364 C3.53634231 111.12660662 2.71393522 111.12622959 1.86660671 111.12584114 C0 111 0 111 -1 110 C-1.10059813 107.19833835 -1.13615267 104.42129827 -1.12939453 101.61914062 C-1.13114685 100.73921951 -1.13289917 99.8592984 -1.13470459 98.95271301 C-1.1391321 96.02053902 -1.13617798 93.0884247 -1.1328125 90.15625 C-1.13348625 88.11332182 -1.13445686 86.07039372 -1.13571167 84.02746582 C-1.13719063 79.72647342 -1.13503132 75.42550172 -1.13037109 71.12451172 C-1.12473108 65.65682534 -1.12791468 60.18918868 -1.13394356 54.72150421 C-1.13759328 50.48996623 -1.13638957 46.25843961 -1.13381577 42.02690125 C-1.13315561 40.01462294 -1.13394247 38.00234356 -1.13629532 35.99006653 C-1.14725958 23.95411421 -0.87233633 12.00603392 0 0 Z " fill="#F3E1C3" transform="translate(621,383)"/>
<path d="M0 0 C36.63 0 73.26 0 111 0 C111 35.97 111 71.94 111 109 C110.67 109 110.34 109 110 109 C110 73.36 110 37.72 110 1 C74.03 1 38.06 1 1 1 C1.144375 17.933125 1.28875 34.86625 1.4375 52.3125 C1.48060303 57.66251221 1.52370605 63.01252441 1.56811523 68.5246582 C1.61136043 73.31332232 1.61136043 73.31332232 1.65589905 78.10197449 C1.67514137 80.23766064 1.6924584 82.37336465 1.70826721 84.50907898 C1.73256105 87.74089283 1.76293124 90.97259763 1.79467773 94.2043457 C1.80044799 95.15849271 1.80621824 96.11263971 1.81216335 97.09570026 C1.82682439 98.39916291 1.82682439 98.39916291 1.84178162 99.72895813 C1.84823417 100.48575017 1.85468672 101.24254221 1.8613348 102.02226734 C1.93237086 104.21228093 1.93237086 104.21228093 3 107 C4.65 107.33 6.3 107.66 8 108 C8 108.33 8 108.66 8 109 C5.36 109 2.72 109 0 109 C0 73.03 0 37.06 0 0 Z " fill="#C6B08D" transform="translate(622,383)"/>
<path d="M0 0 C0.33 0.66 0.66 1.32 1 2 C3.52733235 2.65555119 3.52733235 2.65555119 6 3 C6 3.33 6 3.66 6 4 C-59.34 4 -124.68 4 -192 4 C-191.67 3.34 -191.34 2.68 -191 2 C-177.73539664 1.976869 -164.47079805 1.95908103 -151.20617867 1.94818783 C-145.04743871 1.94296067 -138.88871251 1.93586602 -132.72998047 1.92456055 C-126.79075866 1.91372578 -120.85155011 1.9077219 -114.91231918 1.90512276 C-112.64202541 1.90326958 -110.3717324 1.899651 -108.10144424 1.89426994 C-104.93105732 1.88705172 -101.7607258 1.88600939 -98.59033203 1.88647461 C-97.64374725 1.88287933 -96.69716248 1.87928406 -95.72189331 1.87557983 C-94.86090027 1.8769545 -93.99990723 1.87832916 -93.11282349 1.87974548 C-92.362484 1.87882369 -91.61214451 1.8779019 -90.83906746 1.87695217 C-89 2 -89 2 -87 3 C-87 2.34 -87 1.68 -87 1 C-85.02 1 -83.04 1 -81 1 C-81 1.66 -81 2.32 -81 3 C-80.18869125 2.98747192 -79.37738251 2.97494385 -78.54148865 2.96203613 C-70.87656422 2.84377126 -63.2116321 2.72602333 -55.54669094 2.60884857 C-51.60656233 2.54859738 -47.66643694 2.48814991 -43.72631836 2.42724609 C-39.92027038 2.36842201 -36.11421467 2.31012368 -32.30815315 2.25218201 C-30.85977964 2.23004176 -29.41140896 2.2077156 -27.96304131 2.18519592 C-25.92645866 2.15356301 -23.88986674 2.12260546 -21.85327148 2.09179688 C-20.11786354 2.06514954 -20.11786354 2.06514954 -18.34739685 2.03796387 C-15.94313453 2.01069638 -13.53832832 2.021462 -11.13417053 2.0567627 C-8.1337625 2.36515803 -8.1337625 2.36515803 -7 1 C-4.67182036 0.63239269 -2.3381615 0.29758419 0 0 Z " fill="#C4AD87" transform="translate(616,619)"/>
<path d="M0 0 C26.12075598 -0.09338945 52.24148698 -0.16395282 78.36237621 -0.20724869 C90.49042017 -0.22788492 102.61836046 -0.25602588 114.74633789 -0.30175781 C125.31553713 -0.34159298 135.88466131 -0.36742509 146.45393354 -0.37635398 C152.0517066 -0.38157432 157.64926491 -0.39386626 163.24696922 -0.42292023 C168.51398343 -0.45003674 173.78069407 -0.45845255 179.04777145 -0.45243073 C180.98236935 -0.45353264 182.91697722 -0.46150882 184.85151482 -0.4768219 C187.4907145 -0.49669096 190.12876445 -0.49195062 192.76799011 -0.48101807 C193.53550651 -0.49266943 194.30302291 -0.5043208 195.09379739 -0.51632524 C198.75023577 -0.47531713 200.83716642 -0.10209317 203.96371937 1.85818863 C206.2615257 4.27507933 206.72650967 5.71811604 207 9 C205.85373678 8.02133662 204.70800212 7.04205413 203.5625 6.0625 C202.60537109 5.24458984 202.60537109 5.24458984 201.62890625 4.41015625 C200.73008851 3.63204305 199.84063472 2.84063472 199 2 C196.43319443 1.88983686 193.89271577 1.84503753 191.32493591 1.84178162 C190.51145457 1.83684364 189.69797322 1.83190566 188.85984093 1.82681805 C186.11286162 1.81136518 183.36590582 1.80306148 180.61889648 1.79467773 C178.65818065 1.78510532 176.6974669 1.77509563 174.73675537 1.76467896 C169.39608915 1.7375548 164.05541401 1.71658604 158.71471667 1.69667697 C153.13995905 1.67486357 147.5652291 1.64745223 141.99049377 1.62062073 C131.42595915 1.5706308 120.86140921 1.52571543 110.29684454 1.48259836 C98.27284805 1.4332797 86.24887932 1.37834172 74.22490966 1.32291877 C49.48329899 1.20900206 24.74166171 1.10218423 0 1 C0 0.67 0 0.34 0 0 Z " fill="#F9E6C7" transform="translate(423,251)"/>
<path d="M0 0 C0 3.6987636 -0.84352062 4.35773852 -3.25 7.0625 C-3.85328125 7.75472656 -4.4565625 8.44695313 -5.078125 9.16015625 C-6.97018869 10.97146113 -8.60605599 11.9778071 -11 13 C-11 13.66 -11 14.32 -11 15 C-12.71484375 16.65625 -12.71484375 16.65625 -14.9375 18.5 C-17.92045179 20.88926999 -17.92045179 20.88926999 -20 24 C-20.66 24 -21.32 24 -22 24 C-22.433125 24.8971875 -22.433125 24.8971875 -22.875 25.8125 C-24 28 -24 28 -26 31 C-26.825 31.144375 -27.65 31.28875 -28.5 31.4375 C-29.325 31.623125 -30.15 31.80875 -31 32 C-31.70180765 33.31517613 -32.36318472 34.65215412 -33 36 C-39.36974208 44.1945871 -46.87882955 51.40634083 -55.21484375 57.5546875 C-57.11844711 58.89210618 -57.11844711 58.89210618 -58 61 C-58.66 61 -59.32 61 -60 61 C-60 61.66 -60 62.32 -60 63 C-62.475 63.99 -62.475 63.99 -65 65 C-61.46037668 60.61760922 -57.8087294 56.7995281 -53.41796875 53.26171875 C-51.8630558 52.03520707 -51.8630558 52.03520707 -51 50 C-50.34 50 -49.68 50 -49 50 C-48.79375 49.443125 -48.5875 48.88625 -48.375 48.3125 C-46.82702134 45.70908135 -44.92265493 44.20603811 -42.56640625 42.34375 C-40.56530983 40.62709871 -39.01260882 38.60826918 -37.36767578 36.55737305 C-35.93029667 34.92062878 -34.41708562 33.59937448 -32.7421875 32.20703125 C-25.98090718 26.36235193 -19.79449796 19.89912023 -13.5 13.5625 C-12.18773415 12.24520941 -10.87523605 10.92815014 -9.5625 9.61132812 C-6.37231494 6.4102139 -3.18529349 3.20598135 0 0 Z " fill="#F4E1C3" transform="translate(721,525)"/>
<path d="M0 0 C-0.33 0.66 -0.66 1.32 -1 2 C-28.72 2 -56.44 2 -85 2 C-85.33 1.34 -85.66 0.68 -86 0 C-57.3602017 -1.75443132 -28.66115736 -0.65062762 0 0 Z " fill="#C4AA80" transform="translate(513,359)"/>
<path d="M0 0 C0.66 0 1.32 0 2 0 C2 0.66 2 1.32 2 2 C2.804375 2.268125 3.60875 2.53625 4.4375 2.8125 C5.7059375 3.4003125 5.7059375 3.4003125 7 4 C7.33 4.99 7.66 5.98 8 7 C8.70125 7.226875 9.4025 7.45375 10.125 7.6875 C14.40995751 9.64367626 17.4733113 13.03733604 20 17 C19.67 17.99 19.34 18.98 19 20 C18.16855469 19.15695312 17.33710937 18.31390625 16.48046875 17.4453125 C15.38294603 16.33840925 14.28528241 15.2316457 13.1875 14.125 C12.64029297 13.56941406 12.09308594 13.01382812 11.52929688 12.44140625 C10.99755859 11.90644531 10.46582031 11.37148438 9.91796875 10.8203125 C9.43094482 10.32805176 8.9439209 9.83579102 8.44213867 9.32861328 C6.82996499 7.77411511 6.82996499 7.77411511 4 6 C4 5.34 4 4.68 4 4 C2.68 3.34 1.36 2.68 0 2 C0 1.34 0 0.68 0 0 Z " fill="#F2E0C3" transform="translate(708,336)"/>
<path d="M0 0 C13.53 0 27.06 0 41 0 C40.67 0.99 40.34 1.98 40 3 C37.66705225 3.04241723 35.33297433 3.04092937 33 3 C32.505 2.505 32.505 2.505 32 2 C29.62661361 1.84028023 27.27881728 1.7407567 24.90234375 1.68359375 C24.19348526 1.66281265 23.48462677 1.64203156 22.75428772 1.62062073 C20.48212695 1.55505402 18.20984736 1.4962077 15.9375 1.4375 C14.40037817 1.39432151 12.8632685 1.35070745 11.32617188 1.30664062 C7.5509041 1.19936551 3.7755164 1.09811863 0 1 C0 0.67 0 0.34 0 0 Z " fill="#C1A781" transform="translate(640,514)"/>
<path d="M0 0 C9.24 0 18.48 0 28 0 C28 0.33 28 0.66 28 1 C22.28094617 1.82536345 16.7732851 2.12753701 11 2.0625 C10.22527344 2.05798828 9.45054687 2.05347656 8.65234375 2.04882812 C6.76819476 2.03719758 4.88408635 2.01926906 3 2 C1.84429296 5.46712111 1.67164707 8.5414956 1.4375 12.1875 C1.35371094 13.45980469 1.26992188 14.73210937 1.18359375 16.04296875 C1.12300781 17.01878906 1.06242187 17.99460937 1 19 C0.67 19 0.34 19 0 19 C0 12.73 0 6.46 0 0 Z " fill="#C2A880" transform="translate(292,253)"/>
<path d="M0 0 C3.16854747 0.57691478 4.78226459 1.41646887 7.015625 3.72265625 C7.54414062 4.26083984 8.07265625 4.79902344 8.6171875 5.35351562 C9.15601563 5.91748047 9.69484375 6.48144531 10.25 7.0625 C10.80429687 7.63033203 11.35859375 8.19816406 11.9296875 8.78320312 C13.29334214 10.18212469 14.64760417 11.59019114 16 13 C15.67 13.99 15.34 14.98 15 16 C12.49599357 13.5248518 9.99748094 11.04423106 7.5 8.5625 C6.78457031 7.85544922 6.06914063 7.14839844 5.33203125 6.41992188 C4.65527344 5.74638672 3.97851562 5.07285156 3.28125 4.37890625 C2.65283203 3.7557251 2.02441406 3.13254395 1.37695312 2.49047852 C0 1 0 1 0 0 Z " fill="#F2E0C3" transform="translate(662,291)"/>
<path d="M0 0 C0.66 0.33 1.32 0.66 2 1 C-1.36888632 5.26065035 -4.76133477 8.60906782 -9 12 C-9.66 12.66 -10.32 13.32 -11 14 C-11.33 12.68 -11.66 11.36 -12 10 C-10.37744772 8.51814875 -8.75188112 7.03959744 -7.125 5.5625 C-6.22007812 4.73878906 -5.31515625 3.91507813 -4.3828125 3.06640625 C-2 1 -2 1 0 0 Z " fill="#C7AC85" transform="translate(682,561)"/>
<path d="M0 0 C3.90285767 1.58667578 6.33520982 4.13350481 9.25 7.125 C10.14203125 8.03507812 11.0340625 8.94515625 11.953125 9.8828125 C12.62859375 10.58148438 13.3040625 11.28015625 14 12 C13.34 12.66 12.68 13.32 12 14 C9.99387601 12.04761147 7.99507567 10.08862178 6 8.125 C5.42765625 7.56941406 4.8553125 7.01382812 4.265625 6.44140625 C2.80549218 4.99865596 1.39850702 3.5025626 0 2 C0 1.34 0 0.68 0 0 Z " fill="#F3E2C6" transform="translate(649,277)"/>
<path d="M0 0 C1.08023438 0.23847656 2.16046875 0.47695313 3.2734375 0.72265625 C6.06035629 0.98732417 8.8534326 1.13100137 11.6484375 1.28515625 C12.38449219 1.32833984 13.12054687 1.37152344 13.87890625 1.41601562 C15.67691818 1.52109424 17.47515708 1.62227718 19.2734375 1.72265625 C19.2734375 2.05265625 19.2734375 2.38265625 19.2734375 2.72265625 C10.6934375 2.72265625 2.1134375 2.72265625 -6.7265625 2.72265625 C-2.7265625 -0.27734375 -2.7265625 -0.27734375 0 0 Z " fill="#C6AC87" transform="translate(708.7265625,489.27734375)"/>
<path d="M0 0 C4.07096983 0.55167348 6.26025571 2.67373981 9.25 5.375 C10.14203125 6.16648437 11.0340625 6.95796875 11.953125 7.7734375 C14 10 14 10 14 13 C11.95880212 11.38405168 9.95927063 9.7143618 8 8 C8 7.34 8 6.68 8 6 C7.4225 5.7525 6.845 5.505 6.25 5.25 C3.6997003 3.83316683 1.98214299 2.12372463 0 0 Z " fill="#F3E1C4" transform="translate(634,264)"/>
<path d="M0 0 C0.33 0.99 0.66 1.98 1 3 C0.29875 3.515625 -0.4025 4.03125 -1.125 4.5625 C-4.49467357 7.41939716 -7.21156604 10.58871997 -10 14 C-10.99 13.67 -11.98 13.34 -13 13 C-8.71 8.71 -4.42 4.42 0 0 Z " fill="#F6E3C7" transform="translate(639,606)"/>
<path d="M0 0 C1.1725131 0.95117134 2.33787015 1.91117009 3.5 2.875 C4.47453125 3.67550781 4.47453125 3.67550781 5.46875 4.4921875 C5.9740625 4.98976563 6.479375 5.48734375 7 6 C7 6.66 7 7.32 7 8 C5.02 8 3.04 8 1 8 C0.40267181 5.23735711 0 2.83967231 0 0 Z " fill="#C8B192" transform="translate(724,353)"/>
<path d="M0 0 C0.66 0.99 1.32 1.98 2 3 C-0.64 5.64 -3.28 8.28 -6 11 C-6.33 10.01 -6.66 9.02 -7 8 C-5.71034824 6.62437146 -4.37310707 5.29233607 -3 4 C-2.34 4 -1.68 4 -1 4 C-0.67 2.68 -0.34 1.36 0 0 Z " fill="#C7AF8A" transform="translate(630,611)"/>
<path d="M0 0 C0.99 0.33 1.98 0.66 3 1 C0.36 3.64 -2.28 6.28 -5 9 C-5.33 8.01 -5.66 7.02 -6 6 C-4 4 -2 2 0 0 Z " fill="#CBB28B" transform="translate(709,534)"/>
<path d="M0 0 C0 3.58912412 -0.66436554 4.10857029 -3 6.6875 C-3.556875 7.31011719 -4.11375 7.93273437 -4.6875 8.57421875 C-5.120625 9.04472656 -5.55375 9.51523437 -6 10 C-6.99 9.67 -7.98 9.34 -9 9 C-6.03 6.03 -3.06 3.06 0 0 Z " fill="#F3DFC0" transform="translate(721,525)"/>
<path d="M0 0 C2.97 0 5.94 0 9 0 C7.02 0.99 7.02 0.99 5 2 C3.31110128 3.3050581 1.6396721 4.63360658 0 6 C0 4.02 0 2.04 0 0 Z " fill="#C0A780" transform="translate(424,253)"/>
<path d="M0 0 C0.66 0.66 1.32 1.32 2 2 C-1.465 4.97 -1.465 4.97 -5 8 C-5.33 7.01 -5.66 6.02 -6 5 C-4.06745228 2.9754262 -2.36841312 1.57894208 0 0 Z " fill="#C6AB83" transform="translate(659,583)"/>
<path d="M0 0 C5.78461538 3.32307692 5.78461538 3.32307692 6.875 6.75 C6.936875 7.86375 6.936875 7.86375 7 9 C5.82460004 8.07347299 4.65989423 7.13336613 3.5 6.1875 C2.52546875 5.40439453 2.52546875 5.40439453 1.53125 4.60546875 C0 3 0 3 0 0 Z " fill="#EDDBBE" transform="translate(623,251)"/>
<path d="M0 0 C3.36720387 1.39332574 4.9859524 2.9789286 7 6 C4.625 5.8125 4.625 5.8125 2 5 C0.6875 2.4375 0.6875 2.4375 0 0 Z " fill="#C6AB86" transform="translate(658,289)"/>
<path d="M0 0 C1.32 0.33 2.64 0.66 4 1 C0.535 3.97 0.535 3.97 -3 7 C-3.33 6.34 -3.66 5.68 -4 5 C-3.525625 4.54625 -3.05125 4.0925 -2.5625 3.625 C-0.90972192 2.06741796 -0.90972192 2.06741796 0 0 Z " fill="#C2B191" transform="translate(728,514)"/>
</svg>
